<?xml version="1.0" encoding="UTF-8"?>
<svg xmlns="http://www.w3.org/2000/svg" version="1.1" viewBox="0 0 19.2 19.2">
  <defs>
    <style>
      .cls-1 {
        fill: #844ef2;
      }

      .cls-2 {
        fill: #fff;
      }
    </style>
  </defs>
  <!-- Generator: Adobe Illustrator 28.7.1, SVG Export Plug-In . SVG Version: 1.2.0 Build 142)  -->
  <g>
    <g id="Instagram">
      <rect class="cls-2" x="4.3" y="4.5" width="10.9" height="10.3"/>
      <path class="cls-1" d="M13.5,6.7c-.2-.4-.5-.8-.9-.9-.3-.1-.6-.2-.9-.2-.5,0-.7,0-2,0s-1.5,0-2,0c-.3,0-.6,0-.9.2-.4.2-.8.5-.9.9-.1.3-.2.6-.2.9,0,.5,0,.7,0,2s0,1.5,0,2c0,.3,0,.6.2.9.2.4.5.8.9.9.3.1.6.2.9.2.5,0,.7,0,2,0s1.5,0,2,0c.3,0,.6,0,.9-.2.4-.2.8-.5.9-.9.1-.3.2-.6.2-.9,0-.5,0-.7,0-2s0-1.5,0-2c0-.3,0-.6-.2-.9ZM9.6,12.2c-1.4,0-2.6-1.1-2.6-2.6s1.1-2.6,2.6-2.6,2.6,1.1,2.6,2.6h0c0,1.4-1.1,2.6-2.6,2.6ZM12.3,7.5c-.3,0-.6-.3-.6-.6s.3-.6.6-.6c.3,0,.6.3.6.6s-.3.6-.6.6h0Z"/>
      <circle class="cls-1" cx="9.6" cy="9.6" r="1.7"/>
      <path class="cls-1" d="M9.6,0C4.3,0,0,4.3,0,9.6s4.3,9.6,9.6,9.6,9.6-4.3,9.6-9.6S14.9,0,9.6,0h0ZM14.6,11.7c0,.4,0,.8-.2,1.2-.3.7-.8,1.2-1.5,1.5-.4.1-.8.2-1.2.2-.5,0-.7,0-2.1,0s-1.5,0-2.1,0c-.4,0-.8,0-1.2-.2-.7-.3-1.2-.8-1.5-1.5-.1-.4-.2-.8-.2-1.2,0-.5,0-.7,0-2.1s0-1.5,0-2.1c0-.4,0-.8.2-1.2.3-.7.8-1.2,1.5-1.5.4-.1.8-.2,1.2-.2.5,0,.7,0,2.1,0s1.5,0,2.1,0c.4,0,.8,0,1.2.2.7.3,1.2.8,1.5,1.5.1.4.2.8.2,1.2,0,.5,0,.7,0,2.1s0,1.5,0,2.1Z"/>
    </g>
  </g>
</svg>