<?xml version="1.0" encoding="UTF-8"?>
<svg xmlns="http://www.w3.org/2000/svg" version="1.1" viewBox="0 0 100 100">
  <defs>
    <style>
      .cls-1 {
        fill: #844ef2;
      }

      .cls-2 {
        fill: #fff;
      }
    </style>
  </defs>
  <!-- Generator: Adobe Illustrator 28.7.1, SVG Export Plug-In . SVG Version: 1.2.0 Build 142)  -->
  <g>
    <g id="linkedin">
      <rect class="cls-2" x="23.7" y="20.3" width="56.4" height="56.4"/>
      <path class="cls-1" d="M55.3,44.2h0c0-.1,0,0,0,0ZM55.3,44.2h0c0-.1,0,0,0,0ZM55.3,44.2h0c0-.1,0,0,0,0ZM55.3,44.2h0c0-.1,0,0,0,0ZM55.3,44.2h0c0-.1,0,0,0,0ZM55.3,44.2h0c0-.1,0,0,0,0ZM55.3,44.2h0c0-.1,0,0,0,0ZM55.3,44.2h0c0-.1,0,0,0,0ZM55.3,44.2h0c0-.1,0,0,0,0ZM55.3,44.2h0c0-.1,0,0,0,0ZM55.3,44.2h0c0-.1,0,0,0,0ZM55.3,44.2h0c0-.1,0,0,0,0ZM55.3,44.2h0c0-.1,0,0,0,0ZM55.3,44.2h0c0-.1,0,0,0,0ZM55.3,44.2h0c0-.1,0,0,0,0ZM55.3,44.2h0c0-.1,0,0,0,0ZM50.8,3.8C25.6,3.8,5.1,24.2,5.1,49.4s20.4,45.7,45.7,45.7,45.7-20.4,45.7-45.7c0-25.2-20.5-45.6-45.7-45.7ZM39.4,70c0,.4-.3.8-.8.8h-8.8c-.4,0-.8-.3-.8-.8h0v-29.6c0-.4.3-.8.7-.8,0,0,0,0,0,0h8.8c.4,0,.8.3.8.8h0v29.6ZM33.9,35.7c-3.1,0-5.5-2.5-5.5-5.5,0-3.1,2.5-5.5,5.5-5.5,3.1,0,5.5,2.5,5.5,5.5h0c0,3-2.5,5.5-5.5,5.5,0,0,0,0,0,0ZM76.6,70c0,.4-.3.8-.8.8h-8.8c-.4,0-.8-.3-.8-.8h0v-15.9c0-4.2-1.5-7-5.2-7-2.4,0-4.5,1.5-5.3,3.8-.3.8-.4,1.7-.3,2.5v16.6c0,.4-.3.8-.8.8h-8.8c-.4,0-.8-.3-.8-.8,0,0,0,0,0,0,0-4.2.1-24.7,0-29.5,0-.4.3-.8.7-.8,0,0,0,0,0,0h8.8c.4,0,.8.3.8.7,0,0,0,0,0,0v3.6c1.9-3.3,5.5-5.3,9.3-5.1,6.8,0,11.9,4.4,11.9,14v17ZM55.4,44.2h0c0-.1,0,0,0,0h0ZM55.4,44.2h0c0-.1,0,0,0,0ZM55.4,44.2h0c0-.1,0,0,0,0ZM55.4,44.2h0c0-.1,0,0,0,0ZM55.4,44.2h0c0-.1,0,0,0,0ZM55.4,44.2h0c0-.1,0,0,0,0ZM55.4,44.2h0c0-.1,0,0,0,0ZM55.4,44.2h0c0-.1,0,0,0,0ZM55.4,44.2h0c0-.1,0,0,0,0ZM55.4,44.2h0c0-.1,0,0,0,0ZM55.4,44.2h0c0-.1,0,0,0,0ZM55.4,44.2h0c0-.1,0,0,0,0ZM55.4,44.2h0c0-.1,0,0,0,0ZM55.4,44.2h0c0-.1,0,0,0,0ZM55.4,44.2h0c0-.1,0,0,0,0Z"/>
    </g>
  </g>
</svg>