<?xml version="1.0" encoding="UTF-8"?>
<svg xmlns="http://www.w3.org/2000/svg" version="1.1" viewBox="10 30 240 85">
  <defs>
    <style>
      .cls-1 {
        fill: #844ef2;
      }

      .cls-2 {
        fill: #fff;
      }
    </style>
  </defs>
  <!-- Generator: Adobe Illustrator 28.7.0, SVG Export Plug-In . SVG Version: 1.2.0 Build 136)  -->
  <g>
    <g id="Layer_1">
      <g>
        <path class="cls-2" d="M38.87,63.47c1.87,1.04,3.34,2.5,4.41,4.38,1.06,1.89,1.6,4.06,1.6,6.53s-.53,4.65-1.6,6.55c-1.07,1.9-2.53,3.37-4.41,4.41-1.87,1.04-3.99,1.55-6.37,1.55-3.29,0-5.89-1.1-7.81-3.29v11.82h-5.71v-33.24h5.43v3.2c.94-1.16,2.11-2.02,3.49-2.6,1.38-.58,2.91-.87,4.59-.87,2.37,0,4.5.52,6.37,1.55ZM37.04,79.9c1.35-1.4,2.03-3.24,2.03-5.52s-.68-4.12-2.03-5.52c-1.35-1.4-3.08-2.1-5.18-2.1-1.37,0-2.6.31-3.7.94-1.1.62-1.96,1.51-2.6,2.67-.64,1.16-.96,2.5-.96,4.02s.32,2.86.96,4.02c.64,1.16,1.51,2.05,2.6,2.67,1.1.62,2.33.94,3.7.94,2.1,0,3.83-.7,5.18-2.1Z"/>
        <path class="cls-2" d="M71.54,76.21h-19.13c.33,1.8,1.21,3.22,2.62,4.27,1.42,1.05,3.17,1.58,5.27,1.58,2.68,0,4.89-.88,6.62-2.65l3.06,3.51c-1.1,1.31-2.48,2.3-4.15,2.97-1.67.67-3.56,1-5.66,1-2.68,0-5.04-.53-7.08-1.6-2.04-1.07-3.61-2.55-4.73-4.45-1.11-1.9-1.67-4.05-1.67-6.46s.54-4.51,1.62-6.41c1.08-1.9,2.58-3.39,4.5-4.45s4.08-1.6,6.48-1.6,4.5.52,6.37,1.58c1.87,1.05,3.33,2.53,4.38,4.43,1.05,1.9,1.58,4.1,1.58,6.6,0,.4-.03.96-.09,1.69ZM54.67,68.1c-1.26,1.08-2.03,2.52-2.31,4.31h13.83c-.24-1.77-.99-3.2-2.24-4.29-1.25-1.1-2.8-1.64-4.66-1.64s-3.37.54-4.63,1.62Z"/>
        <path class="cls-2" d="M96.74,64.61c1.86,1.8,2.79,4.46,2.79,7.99v13.97h-5.71v-13.24c0-2.13-.5-3.74-1.51-4.82-1-1.08-2.44-1.62-4.29-1.62-2.1,0-3.76.63-4.98,1.9-1.22,1.26-1.83,3.08-1.83,5.46v12.33h-5.71v-24.38h5.43v3.15c.94-1.13,2.13-1.98,3.56-2.56,1.43-.58,3.04-.87,4.84-.87,3.07,0,5.54.9,7.4,2.69Z"/>
        <path class="cls-2" d="M109.79,85.29c-2.01-1.07-3.58-2.55-4.7-4.45-1.13-1.9-1.69-4.05-1.69-6.46s.56-4.55,1.69-6.44c1.13-1.89,2.69-3.36,4.68-4.43,1.99-1.07,4.27-1.6,6.83-1.6,2.4,0,4.51.49,6.32,1.46,1.81.97,3.17,2.37,4.09,4.2l-4.38,2.56c-.7-1.13-1.58-1.97-2.62-2.53-1.05-.56-2.2-.84-3.45-.84-2.13,0-3.9.69-5.3,2.08-1.4,1.39-2.1,3.23-2.1,5.55s.69,4.16,2.08,5.55c1.38,1.38,3.16,2.08,5.32,2.08,1.25,0,2.4-.28,3.45-.84,1.05-.56,1.92-1.41,2.62-2.53l4.38,2.56c-.94,1.83-2.32,3.23-4.13,4.22-1.81.99-3.9,1.48-6.28,1.48-2.53,0-4.79-.53-6.8-1.6Z"/>
        <path class="cls-2" d="M130.61,57.19c-.7-.65-1.05-1.47-1.05-2.44s.35-1.79,1.05-2.44c.7-.65,1.57-.98,2.6-.98s1.9.31,2.6.94c.7.62,1.05,1.41,1.05,2.35,0,1-.34,1.85-1.03,2.53-.69.68-1.56,1.03-2.62,1.03s-1.9-.33-2.6-.98ZM130.33,62.19h5.71v24.38h-5.71v-24.38Z"/>
        <path class="cls-2" d="M141.93,52.69h5.71v33.87h-5.71v-33.87Z"/>
        <path class="cls-2" d="M172.79,65.36c1.67,1.69,2.51,4.12,2.51,7.28v13.92h-.91v-13.92c0-2.89-.74-5.11-2.21-6.64-1.48-1.54-3.57-2.31-6.28-2.31-3.07,0-5.5.92-7.28,2.76-1.78,1.84-2.67,4.27-2.67,7.28v12.83h-.91v-33.87h.91v16.57c.73-2.01,1.95-3.58,3.65-4.73,1.7-1.14,3.79-1.71,6.25-1.71,2.95,0,5.26.84,6.94,2.53Z"/>
        <path class="cls-2" d="M200.09,62.97v23.6h-.91v-6.25c-.7,2.01-1.87,3.58-3.51,4.7-1.64,1.13-3.64,1.69-5.98,1.69-3.04,0-5.42-.84-7.12-2.53-1.71-1.69-2.56-4.12-2.56-7.28v-13.92h.91v13.92c0,2.89.76,5.11,2.28,6.64,1.52,1.54,3.67,2.31,6.44,2.31,2.95,0,5.28-.92,6.98-2.76,1.7-1.84,2.56-4.27,2.56-7.28v-12.83h.91Z"/>
        <path class="cls-2" d="M222.62,64.36c1.75,1.02,3.13,2.44,4.13,4.25,1,1.81,1.51,3.86,1.51,6.14s-.5,4.34-1.51,6.16c-1,1.83-2.38,3.25-4.13,4.27-1.75,1.02-3.69,1.53-5.82,1.53-2.46,0-4.64-.66-6.53-1.99-1.89-1.32-3.23-3.11-4.02-5.36v7.21h-.91v-33.87h.91v17.44c.79-2.22,2.14-3.99,4.04-5.32,1.9-1.32,4.07-1.99,6.51-1.99,2.13,0,4.07.51,5.82,1.53ZM222.19,84.42c1.61-.94,2.88-2.26,3.79-3.95.91-1.69,1.37-3.6,1.37-5.73s-.46-4.04-1.37-5.73-2.18-3-3.79-3.93c-1.61-.93-3.41-1.39-5.39-1.39s-3.77.46-5.39,1.39c-1.61.93-2.88,2.24-3.79,3.93s-1.37,3.6-1.37,5.73.46,4.04,1.37,5.73c.91,1.69,2.17,3.01,3.79,3.95,1.61.94,3.41,1.42,5.39,1.42s3.77-.47,5.39-1.42Z"/>
      </g>
      <path class="cls-1" d="M232.15,85.81c-.73-.71-1.1-1.62-1.1-2.72s.36-2.04,1.07-2.74c.71-.7,1.6-1.05,2.67-1.05s1.96.35,2.67,1.05c.71.7,1.07,1.61,1.07,2.74s-.37,2-1.1,2.72-1.61,1.07-2.65,1.07-1.92-.36-2.65-1.07Z"/>
    </g>
  </g>
</svg>