<?xml version="1.0" encoding="UTF-8"?>
<svg xmlns="http://www.w3.org/2000/svg" version="1.1" viewBox="0 0 32 32">
  <defs>
    <style>
      .cls-1 {
        fill: #844ef2;
      }

      .cls-2 {
        fill: #fff;
      }
    </style>
  </defs>
  <!-- Generator: Adobe Illustrator 28.7.1, SVG Export Plug-In . SVG Version: 1.2.0 Build 142)  -->
  <g>
    <g id="Youtube">
      <g id="OUTLINE_copy_2">
        <rect class="cls-2" x="5.4" y="8.9" width="20.2" height="15.8"/>
        <path class="cls-1" d="M13.8,19.3l5.4-3.3-5.4-3.3v6.5Z"/>
        <path class="cls-1" d="M16,0C7.2,0,0,7.2,0,16s7.2,16,16,16,16-7.2,16-16S24.8,0,16,0ZM24.7,16.7c0,1.5-.2,3-.2,3,0,0-.2,1.3-.7,1.8-.7.7-1.4.7-1.7.8-2.4.2-6.1.2-6.1.2,0,0-4.5,0-5.9-.2-.4,0-1.3,0-1.9-.8-.5-.6-.7-1.8-.7-1.8,0,0-.2-1.5-.2-3v-1.4c0-1.5.2-3,.2-3,0,0,.2-1.3.7-1.8.7-.7,1.4-.7,1.7-.8,2.4-.2,6.1-.2,6.1-.2h0s3.6,0,6.1.2c.3,0,1.1,0,1.7.8.5.6.7,1.8.7,1.8,0,0,.2,1.5.2,3v1.4Z"/>
      </g>
    </g>
  </g>
</svg>